<svg id="doctor" xmlns="http://www.w3.org/2000/svg" width="58.491" height="100.756" viewBox="0 0 58.491 100.756">
  <path id="Trazado_187" data-name="Trazado 187" d="M156.19,130.826a24.481,24.481,0,0,1-24.454-24.454V95.184a2.924,2.924,0,1,1,5.849,0v11.189a18.6,18.6,0,0,0,37.209,0,2.924,2.924,0,1,1,5.849,0A24.481,24.481,0,0,1,156.19,130.826Z" transform="translate(-126.944 -74.104)" fill="#6e78f7"/>
  <path id="Trazado_188" data-name="Trazado 188" d="M189.656,33.018H146.6V20.834c0-7.962,43.058-7.962,43.058,0C189.656,24.6,189.656,33.018,189.656,33.018Z" transform="translate(-138.882 -11.938)" fill="#cee8fa"/>
  <path id="Trazado_189" data-name="Trazado 189" d="M177.72,24H134.661a2.924,2.924,0,0,1-2.924-2.924V8.9c0-8.029,17.1-8.9,24.453-8.9s24.454.867,24.454,8.9V21.08A2.925,2.925,0,0,1,177.72,24Zm-40.134-5.849h37.209V9.117c-1.036-1.194-7.27-3.268-18.6-3.268s-17.568,2.074-18.6,3.268v9.038Z" transform="translate(-126.945 0)" fill="#6e78f7"/>
  <path id="Trazado_190" data-name="Trazado 190" d="M161.144,326.235H135.992a13.746,13.746,0,0,0-13.746,13.745v19.886h52.642V339.98A13.746,13.746,0,0,0,161.144,326.235Zm3.509,21.983H150.42v-9.894h14.233v9.894Z" transform="translate(-119.322 -262.036)" fill="#cee8fa"/>
  <path id="Trazado_191" data-name="Trazado 191" d="M162.953,350.855H110.31a2.924,2.924,0,0,1-2.925-2.925V328.044a16.689,16.689,0,0,1,16.67-16.67h25.151a16.689,16.689,0,0,1,16.67,16.67V347.93A2.924,2.924,0,0,1,162.953,350.855Zm-49.717-5.849h46.793V328.044a10.833,10.833,0,0,0-10.821-10.821H124.056a10.833,10.833,0,0,0-10.821,10.821v16.962Zm39.481-5.8H138.483a2.924,2.924,0,0,1-2.925-2.925v-9.894a2.924,2.924,0,0,1,2.925-2.924h14.233a2.924,2.924,0,0,1,2.925,2.924v9.894A2.925,2.925,0,0,1,152.716,339.206Zm-11.308-5.849h8.384v-4.046h-8.384Z" transform="translate(-107.386 -250.099)" fill="#6e78f7"/>
</svg>
