<svg xmlns="http://www.w3.org/2000/svg" xmlns:xlink="http://www.w3.org/1999/xlink" width="862" height="834" viewBox="0 0 862 834">
  <defs>
    <clipPath id="clip-path">
      <rect id="Rectángulo_760" data-name="Rectángulo 760" width="862" height="834" transform="translate(-50 -113)" fill="#fff" stroke="#707070" stroke-width="1"/>
    </clipPath>
  </defs>
  <g id="Grupo_3585" data-name="Grupo 3585" transform="translate(-918 -356)">
    <g id="Enmascarar_grupo_17" data-name="Enmascarar grupo 17" transform="translate(968 469)" clip-path="url(#clip-path)">
      <g id="Map" transform="translate(-104.783 -226.525)">
        <rect id="Rectangle_586" data-name="Rectangle 586" width="978.783" height="1009.43" transform="translate(0 24.74)" fill="#f1f9ff"/>
        <path id="Path_230" data-name="Path 230" d="M764.1,1019.271l64.334,13.716-2.6,15.963h11.7l28.051-174.645,6.5,174.645h11.589l-2.166-58.885,29.459-.946L914,1048.95h5.74L916.706,989l44.081-1.3V975.166L924.5,976.231l-2.816-21.165,39.1,1.3V950.1l-39.965-1.3-5.415-41.03,23.611-28.379,21.661,15.017v-7.568l-17.762-12.3,17.762-21.4V843.8l-46.464,56.047c-2.491-15.49-8.664-54.983-11.264-71.655l57.836,10.76V826.18l-28.81-5.439L938.8,773.8c7.69,1.774,15.055,3.429,21.986,4.966V765.877l-16.463-3.666,16.463-22.821V718.934L931.76,759.373l-37.582-8.513,16.029-122.736,50.471,9.932V616.772l-5.307-1.064,5.307-39.611V489.78l-5.849,43.75-53.72-14.189c2.708-15.49,9.856-56.52,12.563-72.128l47.005,9.7v-12.77l-30.326-6.267,23.936-142.246,6.39,1.3v-21.4l-15.7-3.192,4.224-32.044,11.481-2.6V231.3l-10.614,2.365,9.315-70.709,1.3.237V5.221l-3.466,26.132-35.958,2.365L919.63.018h-5.74l1.733,34.172L885.08,36.2,883.672.018H872.083l1.408,37.01-42.348,2.838L837.533.018h-11.7l-6.174,38.665-63.9-18.564,3.357-20.1H739.625l-6.5,38.547-43.972,8.159L683.738.018H672.149l5.524,48.716-43,7.922-18.412-41.03C627.2,12.2,645.615,6.285,665.543.018H624.278L611.173,4.157,609.224.018H587.779l4.44,9.932c-6.715,2.01-15.7,4.73-24.586,7.449C566.226,13.143,564.276,6.876,562-.1h-6.065l6.174,19.155c-10.722,3.193-20.253,6.149-24.044,7.331L510.34,16.927,512.181.018h-5.849l-1.516,15.017L469.4,3.093l.975-3.074H458.136l-4.657,13.834L423.153.018H412.539l-9.423,26.368L359.686,9.951q2.762-4.966,5.2-9.932h-13.43a264.253,264.253,0,0,1-21.12,34.172L325.136.018h-11.7l1.408,9.459-28.918,18.8L270.658.018h-6.715l35.849,66.334c-.866.591-1.733,1.3-2.491,1.892-11.48,8.159-26.427,14.189-43.539,18.682L259.5.018h-5.74l-5.849,88.446c-6.282,1.537-12.78,2.72-19.5,3.9L222.136.018H210.548l2.058,31.216L143.4,22.011,142.964.018H131.376l.433,20.574-15.921-2.128L98.775.018H90.544l16.029,17.145L48.3,9.478,49.388.018H43.539L42.564,8.65,19.387,5.576,20.145.018H.65L0,5.221V163.193l49.821,9.932,8.556,44.932L0,231.3v6.385l17.437-4.02,5.632,46.588L0,275.524v21.4l25.344,5.2L6.065,445.084,0,443.9v12.77l4.332.946L0,489.78V576.1L15.7,459.983,69.966,471.1l-14.4,156.553L0,616.772v21.284l51.012,9.932L0,718.934v20.338L50.579,668.8,36.716,774.154,0,765.877v12.888c14.838,3.311,27.293,6.149,35.091,7.922L29.243,831.62,0,826.18v12.77l3.466.71L0,843.68v9.341l10.181-12.3,17.437,3.311-7.473,56.756L0,886.839v7.45L19.279,907.65l-5.632,42.8L0,949.981v6.267l12.78.473L10.4,974.693,0,975.048v12.534l8.773-.236L.65,1048.832H20.037l7.906-60.54,21.986,3.192-6.5,57.348h5.849l4.441-39.257,36.824,39.257h8.231l-44.081-47.179,1.083-9.341L130.4,1003.19l.975,45.641h11.589l-.975-43.986,66.284,9.7,2.274,34.29h11.589l-1.191-17.618,34.441-6.385-1.625,24.121h5.74l.433-7.213,3.9,7.213h6.715l-9.856-18.328.433-6.858,47.113-8.75,5.2,33.936h11.7L308.89,942.531l82.1,6.858c-8.99,30.034-22.2,66.925-39.532,99.56h13.43c7.04-13.953,13.43-28.378,18.954-42.567l38.124,15.963-9.531,26.6h10.614l-3.791-1.774,19.17-53.564,35.091,8.987-15.38,46.233h12.239L499.617,961.1l15.921-2.128-9.206,89.983h5.849L515.863,1013l26.1-7.8,14.08,43.75h6.065c-5.415-16.672-12.13-37.6-14.621-45.405l17.546-5.2,22.745,50.608h21.445l-9.748-21.757L675.94,1001.3l-4.224,32.635-47.438,14.9h41.265c2.166-.71,4.224-1.3,6.39-2.01l.217,2.01h11.589l-.65-5.558c23.5-7.449,46.68-14.781,60.543-19.273l-4.224,24.831h19.5Zm-10.4-54.391-60.218-8.987,6.065-46.469,61.518,11.47Zm-128.776-82.06,4.116-25.541L693.053,870.4,689.8,894.879ZM688.179,907.3l-2.6,19.865-42.348-6.622,4.224-20.692ZM474.49,882.464l-28.376-.828,4.332-26.723,24.044,12.652a54.2,54.2,0,0,0-.542,7.331A35.081,35.081,0,0,0,474.49,882.464Zm8.773,21.284a40.552,40.552,0,0,0,5.09,5.676l-21.661,31.1-20.47-37.956Zm-1.516-55.574-54.695-28.733,59.46-23.767,8.989,39.138A43.853,43.853,0,0,0,481.747,848.174ZM102.35,781.6l7.04-17.263L196.9,741.519,184.446,789.17Zm79.28,19.983-5.849,32.753-21.336-5.912,1.516-29.206ZM59.785,107.737c19.387,1.537,42.023,2.956,65.634,3.311l-.217,6.267L56.969,140.372Zm-23.611-14.9,6.5-39.848,62.709,8.632c-.65,7.449-2.383,26.132-3.249,35.946C77.006,96.5,54.045,94.731,36.174,92.839Zm148.7,83.952,7.473,72.483c-17.112,2.128-68.558,8.632-86.862,11l8.015-76.03Zm-60-52.736-1.841,46.588-14.513,1.537-13.43-2.72-3.9-34.054Zm68.016,131.486,2.708,26.132-93.793,12.534,2.924-27.551ZM588,250.456l-10.614,41.03-43.756,18.446c-6.39-19.51-11.481-38.665-14.3-50.253Zm-60.11-39.611,33.575-4.493,3.682,26.013-34.55,4.611Zm166.9,266.874-40.615-10.405,20.253-69.172,34.875,7.095C706.808,418.007,700.634,448.868,694.786,477.719ZM715.039,406.3l42.889,8.75-56.1,57.229Zm-383.08,14.426,66.392-6.858,7.257,31.453-79.5,2.6Zm0-54.746,60.76,23.176,2.816,12.3-58.594,6.03ZM634.026,467.2,623.2,504.205l-47.33-20.456L588.537,449.1Zm-43.431-23.885,10.939-30.034c16.246,10.169,32.059,19.155,41.156,24.121l-6.932,23.767Zm-30.976,50.963-22.2-20.574,26.752-41.385,13.972,11.115Zm-2.274,6.149-1.083,2.956-55.886,5.2-28.051-40.794,27.835-20.456Zm-62.6,10.642-47.222,29.679-10.831-46.706,30.867-22.584C472.649,478.9,489.112,502.787,494.744,511.064ZM468.75,462.821c-2.383-3.311-6.932-9.578-10.181-14.071l23.286-18.328L495.5,443.074Zm-4.765,3.547-28.81,21.165-4.007-17.145,22.744-17.855ZM432.9,563.09l-50.8-16.436,38.124-38.193Zm-57.294-18.564-65.525-21.284,14.73-69.054,82.313-2.6L418.713,501.6ZM304.341,410.912l-8.989-83.125,25.669-4.139L331.2,408.074Zm-.542,12.652,22.094-2.247L315.28,471.1,293.4,463.412Zm10.181,53.682-9.423,44.223-24.152-7.8,11.481-44.1ZM307.7,535.658l-31.192,92.7-23.178-10.523,23.936-92.111Zm5.524,1.774,30,9.7-12.888,42.094c-8.556-2.838-24.477-8.277-30.976-10.524Zm26.21,61.722c5.849,2.247,16.029,6.149,28.051,10.76L348.53,657.33l-25.777-3.311Zm1.733-6.03,13-42.449L398.676,565.1l-10.722,45.878ZM404.2,566.992,436.042,577.4l13.213,57.111-55.886-21.4Zm44.73-19.865,24.586-15.49,12.022,46.824-31.409-8.75Zm29.784-18.8,21.228-13.361,54.045-5.085-29.026,79.341-32.817-9.1Zm71.482,25.9,25.885,9.459-9.314,37.483-30.542-8.513Zm2.058-5.912L573.7,489.662l47.655,20.574-16.787,57.111Zm71.157,23.649,48.3,9.459L631.21,655.2,606.3,630.489Zm5.957-20.1,23.069-78.631,41.156,10.642c-4.116,20.693-7.906,39.375-9.639,48.361L648,555.523Zm69.208-63.378L715.8,511.418l-25.019,16.2Zm-52.312-63.142c-19.17-10.642-62.71-35.709-82.746-54.51a34.74,34.74,0,0,1-2.816-2.956l46.355-43.4,51.987,57.348Zm-69.858-88.682-15.163-31.689,17.87-7.568,19.6,18.209Zm-4.549,4.257-18.087,17.027c-6.715-11.233-12.888-26.486-18.2-41.976l20.253-8.514Zm-15.813,39.493c8.881,8.4,21.878,17.736,35.416,26.486L580.414,437.28l-53.4-42.213,24.694-19.392A57.223,57.223,0,0,0,556.045,380.405Zm3.466,48.125-26.535,41.03-46.247-42.8,35.308-27.787Zm-70.4-19.155L478.823,372.01l25.56-13.361,10.722,30.388ZM477.09,365.862l-8.231-29.8,18.087-26.841,15.38,43.4Zm2.166,51.2-51.012,40.084-18.412-79.814,55.345-11.588ZM408.315,371.3l-21.661-94,52.1-6.976,24.694,89.273Zm-17.329,10.524L331.093,359l-4.332-36.3,48.738-7.922ZM294.7,321.52l-3.466-31.453L367.375,279.9l6.715,28.851Zm-6.823-52.145-5.848-27.2,81.338,4.138,3.033,12.534Zm4.116,134.442L237.3,335.237l-2.274-37.6,44.73-6.03ZM232.859,276.706l-3.9-26.959c15.488-2.6,32.925-5.557,41.481-6.976l6.065,28.142Zm-3.574,21.638,2.166,35.355-24.261,2.6.866-35Zm4.007,41.385,57.836,72.483-86,8.868,1.841-78.631C214.772,341.74,228.743,340.2,233.292,339.73Zm58.161,85.135L244.014,607.077l-23.286-14.307,49.5-165.776ZM250.079,630.016l59.352,27.078-6.607,21.639-57.944-28.969Zm31.625.828,15.488-46.115,31.192,10.524-15.271,49.9Zm38.99,29.088,26.21,3.429-5.957,42.449L313.114,685Zm32.275,1.537L372.9,611.925c15.7,6.03,33.683,12.888,49.171,18.8L404.633,727.8l-22.095,9.223-36.391-27.314ZM440.7,726.147l9.747,38.192L409.4,783.022l-18.737-35.946Zm-29.676-1.064,16.571-92.348c9.423,3.547,17.654,6.74,23.5,8.986l14.08,60.777Zm46.355-141.537L521.5,601.4l-16.571,23.885-35.416,11Zm70.291,19.628,60.543,16.909-67.475,37.483L510.015,628.6Zm44.622-.591,9.206-37.01,21.336,7.8-10.289,34.882ZM604.35,637.11,658.5,690.674l-4.007,8.4c-27.4-5.794-51.446-10.76-64.334-13.48Zm31.192,22.348,42.24-76.858,29.243,5.794L661.1,684.88Zm77.547-70,9.314,1.892-18.2,118.124c-14.621-3.074-29.568-6.267-43.864-9.223Zm3.249,79.577,47.438,12.415-5.74,39.375c-14.3-2.956-30.867-6.5-48.088-10.051Zm7.148,57.348,32.167,6.74-14.3,65.034-26.535-5.912Zm37.907,7.922,30.109,6.267-11.156,66.1-33.25-7.331Zm2.274-12.3,5.74-39.611,31.409,2.72-7.257,43.159C786.521,726.738,776.124,724.61,763.669,722.008Zm6.607-45.878,3.9-26.487,31.842,4.848L801.9,678.968Zm4.765-32.753,5.849-40.557,32.6,6.385-6.607,39.02Zm-10.4,31.807-47.33-12.3,10.831-70.354,47.222,9.223ZM665.326,558.834l57.836-37.483,42.781,57.229Zm62.818-40.794,75.165-48.834L820.1,491.554l-75.273,48.6Zm-7.365-9.814-19.82-26.486L764.318,417.3l31.625,42.213Zm45.814-137.28-45.055-6.5c1.408-9.341,2.708-17.973,3.357-22.466l44.514,9.814Zm-.867,6.267-3.791,25.9-44.73-9.223c.866-5.676,2.166-14.426,3.466-23.294Zm-54.262,15.608L678,385.963,692.944,335l26.318,5.794Zm-48.413-24.476L615.83,316.2l36.932-34.645L683.413,298.7ZM603.158,311.47l-20.253-18.8,11.155-43.04,68.883-9.223a48.372,48.372,0,0,0,4.224,11.115Zm-26.535-80.642-9.1-63.969,39.1-6.622,9.206,65.388Zm-31.842,134.8-24.8,19.51-28.918-81.824,19.82-29.324C517.488,299.291,529.727,340.676,544.781,365.625ZM466.8,328.615,450.338,268.9l57.4-7.686c.325,1.537.758,3.193,1.191,4.966Zm-9.1-81.942-18.52,2.483-31.517-55.219,50.146-8.513Zm-24.8,3.311-48.088,6.385,19.062-57.229Zm-57.294-2.72L349.83,138.6l55.02,21.165Zm-13.647-7.331-44.731-2.247-11.914-73.429,37.8-3.9Zm-50.687-2.6-30.542-1.537-14.4-67.517,33.142-3.429Zm-42.131-.709-41.156,6.858-3.9-26.959,39.532-5.794Zm-42.023,40.912-20.037,2.72-2.708-26.368c4.441-.709,11.264-1.892,18.845-3.193ZM204.807,433.851l59.135-6.149L233.834,528.445l-30.976-13.835ZM232.1,534.476l-16.787,56.283-14.08-2.483,1.625-66.807Zm-18.629,62.314-13.538,45.405,1.083-47.652C205.132,595.252,210.223,596.2,213.472,596.789Zm5.415,2.128,23.5,14.426L217.479,709.12l-18.954-9.932.866-34.882Zm24.477,56.993,57.619,28.851L283,743.529l-54.911-28.851Zm67.8,35.236,64.876,48.6-55.886,23.294L293.4,748.968Zm7.257,94.239,51.229,26.959-13.322,27.2-45.489-10.76Zm16.029-14.78,50.8-21.165,18.845,36.064-22.2,10.05Zm117.621-.118,7.473,29.324L419.9,815.657,388.82,799.221ZM446.114,723.9l21.77-9.1L485.1,789.407l-20.253,8.04Zm24.91-81.469,34.008-10.524,32.6,87.854-45.164,15.372ZM522.9,663.36l64.009-35.591L552.8,744Zm63.684,34.29,54.8,11.469L630.885,773.8l-62.6-13.834ZM640.2,788.7l61.735,13.6-4.765,36.773-59.677-33.7Zm1.95-12.416,10.506-64.8,59.568,12.534-8.665,65.861Zm71.157,28.5,64.984,14.308L771.9,857.16l-63.684-13.716Zm72.349,86.081,27.835,3.9-8.664,48.361-27.4-3.784Zm1.083-6.148,12.78-75.912L828,814.12l-13.322,74.493Zm14.838-88.327,8.665-51.672c8.989,2.01,23.827,5.439,41.373,9.341l-10.289,49.662Zm10.831-63.969,10.722-63.851L891.9,679.087l-9.1,69.29Zm8.556-143.074-46.355-9.1-26.21-35,75.273-48.6,11.155,14.9Zm24.585-71.891L893.311,530.1c-2.708,14.662-9.531,52.618-12.889,70.945l-48.088-9.459Zm-7.8-21.993L781.214,419.9,848.8,433.733ZM773.2,405.473l11.372-77.331,80.688,12.77-14.4,80.523Zm43.323-85.017,6.607-51.672,53.07,10.878L867.426,328.5Zm3.9-73.665-21.77-4.493,6.932-42.8,21.986,2.6ZM817.5,267.6c-1.841,14.426-5.09,40.084-6.607,51.909l-24.369-3.9,7.8-52.855Zm-30.217-27.551-41.59-8.514c0-.946.108-1.774.108-2.72a51.23,51.23,0,0,0-3.466-18.328l39.207-25.777L792.262,209.9Zm-4.441,20.456-12.455,85.017-75.6-16.554,16.138-54.983c12.455-2.365,23.069-10.76,29.135-22.23Zm-79.172-6.858c-12.563,0-22.852-11.115-22.852-24.949,0-13.716,10.181-24.949,22.852-24.949,12.564,0,22.853,11.115,22.853,24.949S716.23,253.649,703.667,253.649ZM691.1,272.568l-5.957,20.1-27.726-15.49,16.788-15.726A42.382,42.382,0,0,0,691.1,272.568Zm-28.485-53.209-40.94,5.439-9.314-65.507,43.756-7.449,19.278,43.04A47.14,47.14,0,0,0,662.619,219.359ZM558.1,155.744l-2.924-25.067,83.613-17.263,11.914,26.6Zm-1.949,13.125,4.44,31.334-33.358,4.375-3.141-30.27ZM524.961,237.8l-61.41,8.159.108-61.486,54.8-9.341ZM465.5,171.47l19.712-77.094,24.261,10.051L495.5,166.386Zm-6.282,1.064-49.279,8.4L444.49,77.585,479.8,92.129ZM406.8,153.852l-28.268-10.878,9.964-38.9,30.326,13.716Zm-33.683-13.007-25.019-9.7-12.13-51.081,47.222,21.52Zm-33.033,7.095-78.847,8.277-3.574-27.787,73.865-16.081ZM262.21,204.578l-39.1,5.676L217.7,173.362l37.041-3.9Zm-43.864,12.77,4.007,27.078-18.52,3.074-2.816-27.669Zm-18.087-3.666-3.9-38.074,15.6-1.655,5.415,37.128Zm-3.9,89.037-.867,34.645c-9.206.946-27.618,2.72-35.091,3.429l1.191-33.463ZM148.7,508.226,147.73,536.6c-6.5-.237-21.986-.828-28.485-1.182l1.191-29.442Zm-26.1-14.544,28.485-50.253-1.841,52.263Zm24.91,49.189-1.191,33.7c-9.423-2.01-19.17-4.138-28.485-6.149l1.191-28.733Zm-1.625,40.084-4.765,42.213-30.109-8.514,6.065-39.848Zm-1.625,65.861,16.788,4.611-1.733,24.949-17.437-9.1Zm.758-6.267,6.607-58.412,14.08,3.074-4.116,59.949Zm26.21-54.155,18.3,3.9-2.383,100.743-22.2-11.706Zm-19.17-10.523,1.191-34.645c7.473.473,27.51,1.774,37.366,2.365l-.975,40.321C182.063,584.256,167.875,581.182,152.062,577.871Zm1.408-40.912.975-28.26,36.933,2.838-.65,27.669Zm1.516-40.794,2.166-61.6,36.174-2.838L191.7,499Zm2.383-67.99.866-24.713,35.741,1.064-.542,20.811Zm1.3-37.365,1.516-43.75,35.091-3.429-1.083,48.243Zm-55.02-75.675,52.312-6.976-1.191,32.99-53.5-.591Zm50.9,32.162-1.516,43.277-56.211-1.537,3.9-42.213ZM152.5,403.226l-.975,27.314-18.412,32.4L94.876,410.084l.758-8.632Zm-22.528,65.507L116.1,493.091l-28.593-2.247,6.607-71.773ZM114.7,505.624l-2.6,63.614c-12.564-2.719-23.827-5.084-31.192-6.74l5.415-59.121ZM77.764,386.081l-23.178-3.547,11.48-72.01,18.3,3.784Zm2.491,182.8,31.192,6.74L100.4,647.516,74.3,633.8ZM110.148,622.8l30.326,8.632-3.9,35-30.651-16.081Zm29.134,68.344L201.45,723.9l-2.816,10.76-86.32,22.466Zm67.475,35.473L237.3,742.7l-13.43,50.135-33.683-3.074Zm41.048,21.639,26.318,13.834-19.279,87.854L221.7,846.163ZM293.51,860.707l-2.816,16.081-76.681-2.365,5.957-22.112Zm-32.925-10.169,18.845-85.726,28.268,14.9L294.593,854.44Zm49.171-15.49,81.663,19.274-2.924,25.54-86.1-2.72Zm52.42,5.912,12.672-25.777,28.376,14.9-10.072,18.209Zm35.2,11.943,11.156-19.983,36.391,19.156L440.157,881.4l-45.922-1.419Zm118.487-2.956c12.564,0,22.853,11.115,22.853,24.949,0,13.716-10.181,24.949-22.853,24.949-12.564,0-22.853-11.115-22.853-24.949C493.119,861.18,503.3,849.947,515.863,849.947Zm11.48-19.155a37.15,37.15,0,0,0-11.48-1.774H514.13l-20.361-87.854,45.922-15.608,10.289,27.787Zm37.366-58.767,64.117,14.189-.975,6.149L549.98,848.174a47.937,47.937,0,0,0-5.632-6.976Zm61.735,28.851L613.556,880.69,557.67,870.285a47.235,47.235,0,0,0-4.657-16.672Zm15.379,97.787-4.332,20.929-51.337-8.04,9.856-21.284Zm-11.805-47.652,6.39-39.138L696.3,845.69l-2.383,18.564Zm133.109,57.466L701.176,896.89l6.173-47.3,63.359,13.6Zm29.46,103.936-26.427-5.676,10.289-61.25,27.293,3.784Zm37.8,8.159L803.85,1014.9l16.788-94.24,24.8,6.031ZM846.523,920.42l-24.694-5.912,17.546-98.26,23.178,4.375Zm72.024,55.81-37.583,1.182-.975-27.078,30.434-36.655C912.265,927.987,916.706,961.923,918.547,976.23Zm-9.206-70.591-29.676,35.709L875.224,822.87l21.661,4.021Zm18.087-134.324-6.932,47.3L847.064,804.9l10.181-49.544C879.015,760.319,904.142,765.995,927.428,771.316Zm-34.766-98.5L824.1,662.414l8.339-49.425L898.835,626ZM915.3,607.786l-29.243-5.676,5.957-32.99,28.7,6.267Zm28.7,5.676-23.069-4.493,5.523-32.4,21.878,4.848Zm9.1-67.516-3.9,29.206-55.994-12.3,5.632-31.334Zm-57.619-28.26-47.763-12.652,12.347-69.054,47.98,9.814Zm29.243-81.114L862.227,423.8l10.4-58.412,61.735,13.6ZM956.454,37.738l-6.607,50.49-25.777-.473L921.688,40.1Zm-32.708,62.669,24.369.473-13.105,99.679L915.3,200.44Zm-8.881,106.3,19.387.118-8.123,61.723-16.246-3.311Zm-10.722,57.348-10.831-2.247L887.246,99.7l30.651.591Zm11.7-223.6,2.383,47.179-31.409-.591-1.625-44.459ZM887.571,281.909l61.085,12.534L935.442,372.72l-61.735-13.6Zm-5.849-22.466-55.561-11.351c2.166-13.716,5.848-37.128,7.148-45.287l46.572,5.439Zm-2.166-57.7-73.107-8.514,5.415-34.054,65.959-.709ZM830.169,46.251,873.708,43.3l1.733,46.824-52.312-.473Zm-8.015,49.662,53.5.473,2.058,55.929-64.767.709ZM754.679,26.386l63.9,18.564-6.931,42.8L747.639,67.18Zm56.1,67.635-15.163,94.121-48.63-114.7Zm-67.583.473,35.849,84.425-39.423,25.9a45.1,45.1,0,0,0-12.564-14.307ZM731.935,45.187,708.649,183.295c-1.408-.118-2.708-.236-4.116-.355L689.8,52.873ZM678.431,55l14.73,129.358a2.378,2.378,0,0,1-.867.236L637.383,62.569Zm-80.9-33.463,38.665,86.081-38.124,7.922L571.533,29.461ZM565.9,31.116c5.523,17.736,21.986,71.419,26.427,85.49l-37.907,7.8-10.072-86.79ZM546.622,157.754l-45.056,7.686,13.214-58.648,27.185,11.233Zm-5.415-46.824L487.054,88.464l12.78-30.507,36.932,14.662ZM508.065,29.342l24.694,8.4,3.249,27.787-34.117-13.48ZM465.393,14.917l37.149,12.534-6.932,25.3L481.747,86.1,446.439,71.437ZM417.2,4.157l34.333,15.608-7.365,22.111L408.532,28.4ZM404.849,40.339,440.157,53.7,420.77,111.876,390.12,97.923ZM353.4,20.947l46.03,17.382L384.7,95.558,334.017,72.619,329.685,54.41A243.032,243.032,0,0,0,353.4,20.947Zm-64.551,12.77L315.93,16.1l4.657,30.507a150.706,150.706,0,0,1-16.029,16.081Zm14.73,45.169A127.93,127.93,0,0,0,320.262,64.7l9.856,41.621L256.9,122.281l-2.816-22.23C273.474,94.967,290.478,88.109,303.583,78.886Zm-55.128,22.348,7.148,55.574-76.681,8.041-3.791-54.273C200.692,109.156,225.927,106.318,248.455,101.234ZM213.58,44.123l3.358,50.017c-22.853,3.074-47.547,4.257-71.807,4.375L143.723,34.9Zm-44.3,66.571,3.9,54.628-44.3,4.612,2.274-58.767C143.723,111.285,156.5,111.166,169.283,110.693ZM114.372,30.88l17.762,2.365.542,25.777-21.011-2.838C112.314,50.508,113.613,38.329,114.372,30.88Zm18.52,34.527.758,32.99c-8.665-.118-17.329-.236-25.669-.591l3.141-35.473ZM17.762,17.991,108.74,30.052l-2.708,25.3L14.513,42.822Zm-4.116,31.1,23.286,3.193-6.5,39.966c-9.206-.946-16.679-1.892-22.095-2.6ZM49.279,160.237.325,150.423l6.39-48.243c9.856,1.3,26.535,3.311,47.33,5.084Zm6.932-13.125,29.351-9.932,3.574,30.98L54.911,161.3Zm-.325,27.314,46.03,9.223-11.7,110.557-12.13-2.483ZM23.178,232.484l36.283-8.277,12.564,66.1-43-8.868ZM17.329,447.449,36.608,304.493l23.827,4.848L37.691,451.588Zm26.1,5.321L53.72,388.682l23.611,3.666-6.065,66.1ZM71.7,655.556l57.186,30.034L90.219,780.421l-34.441-3.193ZM54.153,789.762l90.436,8.4-1.516,29.206L48.2,835.522Zm88.486,43.986-2.058,38.429-23.611-.709V835.995Zm-95.31,8.159,63.9-5.557v34.763L43.756,869.1ZM81.446,983.443l-51.77-7.568,7.8-59.358,48.954,7.331ZM38.34,910.251l2.708-20.219,48.2,1.537L87.078,917.7Zm66.392,76.621-17.546-2.6,4.982-59.476,18.087,2.719Zm6.065-65.625-18.2-2.719,2.274-26.723,18.629.591Zm25.777,70.236-20.362-2.956,5.524-59.831,18.737,1.182Zm-14.3-69.054,2.816-29.8L200.259,895l2.166,32.4Zm20.037,69.881,4.007-62.077,56.536,3.547,4.549,68.108ZM202.1,874.069l-49.929-1.537,1.949-37.6,54.37,15.135Zm-20.687-38.192,6.065-33.817,33.142,3.074-10.4,38.784Zm30.434,59.476,78.63,2.483,3.357,22.112L214.014,927.4Zm2.491,38.193L294.7,926.1l4.874,32.044-82.963,9.814Zm6.174,91.4-3.033-44.341,83.937-9.932,5.849,38.074Zm87.4-88.918-5.74-37.956,101.591,3.193c-2.166,9.578-5.848,24.24-10.939,41.858Zm116.213,80.287-38.016-15.845c2.383-6.267,4.657-12.415,6.715-18.564l39.965,10.287Zm-27.293-46.233c9.748-29.8,15.813-55.337,18.737-68.463l23.827.71,23.394,43.513-24.261,34.881Zm80.688,20.693-32.925-8.4,22.528-32.4,20.795,9.341Zm12.455-37.365-19.17-8.632,21.986-31.571a37.4,37.4,0,0,0,8.989,4.848Zm11.914,1.182,11.264-33.817a19.932,19.932,0,0,0,2.708.118,38.692,38.692,0,0,0,13.322-2.365l13.647,30.27Zm14.621,51.672,4.874-48.125,24.044-3.429,17,37.838ZM563.3,946.788,545.539,907.3a47.044,47.044,0,0,0,11.7-24.358l32.925,6.149Zm33.575,74.611L586.8,999.051l33.575-10.524,5.415,22.939Zm79.93-27.078-45.489,15.372L625.9,986.872l54.045-16.909Zm4.982-37.956L581.714,987.582l-15.163-33.7,16.9-36.419,101.375,15.963Zm1.949,73.666,8.015-61.6,28.16,4.257-6.607,48.006Zm62.276-19.865-26.535,8.4,6.282-45.287,25.885,3.9Z" transform="translate(0 0.1)" fill="#fff"/>
      </g>
    </g>
    <text id="Tarapoto" transform="translate(1281 782)" fill="#909398" font-size="40" font-family="Poppins-SemiBold, Poppins" font-weight="600"><tspan x="0" y="0">Tarapoto</tspan></text>
  </g>
</svg>
